<svg width="192" height="35" viewBox="0 0 192 35" fill="none" xmlns="http://www.w3.org/2000/svg">
<path fill-rule="evenodd" clip-rule="evenodd" d="M145.606 17.504L154.187 26.2319H149.847L142.766 19.0233H138.917V26.2319H135.449V9.36783H138.917V16.4885H142.766L149.761 9.36783H153.594L145.606 17.504Z" fill="white"/>
<path fill-rule="evenodd" clip-rule="evenodd" d="M129.071 22.5376V9.36783H132.248V26.2319H128.093L118.404 13.25V26.2319H115.199V9.36783H119.339L129.071 22.5376Z" fill="white"/>
<path fill-rule="evenodd" clip-rule="evenodd" d="M101.245 9.36783H105.023L113.31 26.2279H109.834L108.047 22.5376H98.2484L96.536 26.2279H92.9385L101.249 9.36783H101.245ZM99.5758 19.8829H106.751L103.15 12.4144L99.5758 19.8829Z" fill="white"/>
<path fill-rule="evenodd" clip-rule="evenodd" d="M92.2787 14.0296C92.2787 14.9052 92.1491 15.6249 91.8938 16.1846C91.6385 16.7444 91.0612 17.1961 90.6213 17.532C91.1515 17.8398 91.8034 18.2956 92.1216 18.9033C92.4397 19.5111 92.5968 20.3227 92.5968 21.3382C92.5968 22.3537 92.4397 23.1773 92.1216 23.805C91.8034 24.4367 91.3636 24.9325 90.798 25.2923C90.2325 25.6522 89.553 25.9 88.7597 26.032C87.9664 26.1639 87.1023 26.2279 86.1637 26.2279H76.2744V9.36783H86.1637C87.0395 9.36783 87.8525 9.4278 88.5987 9.55174C89.3449 9.67569 89.9929 9.90757 90.5349 10.2554C91.0769 10.6032 91.505 11.079 91.8152 11.6867C92.1255 12.2945 92.2787 13.0741 92.2787 14.0256V14.0296ZM79.6324 16.4925H86.6507C88.1352 16.4925 89.0189 15.8648 89.0189 14.2695C89.0189 12.9381 88.0724 12.1025 86.8078 12.1025H79.6363V16.4965L79.6324 16.4925ZM79.6324 18.7154V23.3892H86.6546C88.1667 23.3892 89.1053 22.7695 89.1603 21.0983C89.2114 19.531 88.3395 18.7154 86.6703 18.7154H79.6324Z" fill="white"/>
<path fill-rule="evenodd" clip-rule="evenodd" d="M65.7258 20.0348L60.903 26.2319H57.168L63.9899 17.464L57.71 9.36783H61.2407L65.7258 15.1531L70.2267 9.36783H73.8477L67.5442 17.464L74.3426 26.2319H70.5291L65.7258 20.0348Z" fill="white"/>
<path fill-rule="evenodd" clip-rule="evenodd" d="M52.1684 19.0233H44.1133V23.3852H52.7144L55.5107 26.2319H40.6689V9.36783H55.4636L52.6829 12.2025H44.1133V16.4885H52.1684V19.0233Z" fill="white"/>
<path fill-rule="evenodd" clip-rule="evenodd" d="M25.6698 21.0184V26.2319H22.2451V9.37185L31.8987 9.23592C32.7274 9.22392 33.5325 9.31188 34.3102 9.46781C35.0878 9.61974 35.779 9.9196 36.3838 10.3554C36.9887 10.7952 37.4678 11.3989 37.8213 12.1665C38.1748 12.9342 38.3554 13.9257 38.3554 15.1411C38.3554 16.3566 38.1748 17.3641 37.8095 18.1157C37.4482 18.8674 36.9651 19.4511 36.3603 19.8589C35.7555 20.2667 35.0642 20.5386 34.2866 20.6785C33.509 20.8185 32.7117 20.8704 31.8948 20.8864L25.6659 21.0224L25.6698 21.0184ZM34.966 15.1571C34.966 13.4819 34.2434 12.2585 32.3622 12.2585H25.6698V18.0518H32.3936C34.2748 18.0518 34.9621 16.8363 34.9621 15.1571H34.966Z" fill="white"/>
<path fill-rule="evenodd" clip-rule="evenodd" d="M8.31043 9.36789H12.0886L20.3755 26.228H16.8997L15.1127 22.5377H5.30988L3.59752 26.228H0L8.31043 9.36789ZM6.64128 19.8829H13.8167L10.2152 12.4145L6.64128 19.8829Z" fill="white"/>
<path fill-rule="evenodd" clip-rule="evenodd" d="M183.8 25.8481L175.301 34.5L166.802 25.8481L175.301 17.1961L183.8 25.8481ZM158.602 17.5L163.648 22.6376L175.301 10.7752L186.954 22.6376L192 17.5L175.301 0.5L158.602 17.5Z" fill="#D40000"/>
</svg>
